<svg xmlns="http://www.w3.org/2000/svg" display="block" viewBox="0 0 934 934">
  <g class="layer">
    <title>Layer 1</title>
    <path fill="#ebd0b7" d="M373 715h229q-.8 14.5-2.7 28.8l-.6 3.8c-7 49-19.3 107-55.7 143.4a9 9 0 0 0 1 5l5 4c1 2 1 2 1 4-1 1.5-1 1.5-3 3q-4.1.9-8.2 1.2l-2.7.2c-15.8 1.2-31.6.9-47.4.8h-26.4c-27.6 0-27.6 0-35.3-4.2.2-2.3.2-2.3 1-5l2.6-2c2.6-1.7 2.6-1.7 2.8-4.3-.5-3.6-2-4.9-4.5-7.4q-6.6-7-11.9-15.3l-2-3.2c-28.4-44.2-37.3-101.4-42-152.8"/>
    <path fill="#345d38" d="M830 189a20 20 0 0 1-7.1 3.3l-2.5.6-2.6.8A199 199 0 0 0 746 234l-1.6 1.3a251 251 0 0 0-21.3 19.7c-2.1 2-2.1 2-4.1 2l-.6 1.6c-2 3.4-4.7 5.8-7.5 8.5q-7.3 7.1-13.6 15-3.1 4-6.4 7.6a400 400 0 0 0-26 33.4q-9.3 12.6-17.9 25.9l-1.3 2a895 895 0 0 0-43.1 74.5A767 767 0 0 0 559 523l-1.2 3.3a613 613 0 0 0-16.4 50c-5.9 19.4-10.6 39-15.4 58.7a138 138 0 0 0 4-11.1A474 474 0 0 1 638 440l2-2c8-8.2 16-16 25-23l3-2.4a204 204 0 0 1 66-35.6l3.2-1.1 9.8-2.9 2-.6c28.3-7.3 61.1-5.8 88 5.6l3.4 1.3A117 117 0 0 1 880 406l2 2 4 4v2q-5.9-2.3-11.1-5.3c-32.4-16.8-75-11.5-108.4-1q-14 4.7-27.3 11.2l-6.2 3q-27 13-50.3 31.7l-4.5 3.6a255 255 0 0 0-26.6 23.2l-5.6 5.1q-8.7 7.5-16.1 16.4l-6.1 6.7q-7.5 8.5-14.3 17.4l-4.9 6.3A379 379 0 0 0 582 564l-1.6 2.4c-27.7 43.2-53.2 94.9-63.4 145.6h-13c3.5-48 9-96.2 18.5-143.4l1.7-8.8 1.3-6.5.6-2.9a882 882 0 0 1 10.6-46.2l2.1-8.4q3.9-15 8.5-29.7l2.9-9 3-9.8 1.6-4.9c8.2-26.2 8.2-26.2 13.2-37q1.7-4.1 3-8.3A413 413 0 0 1 647 265l1.6-1.9a213 213 0 0 1 39.8-36.8c40-31 91.5-47.2 141.6-37.3"/>
    <path fill="#365f39" d="m428 248 2.8 2c3 2.3 3 2.3 6.3 2 3-1 5.3-2.2 7.9-4a34 34 0 0 1-2.4 9.5c-5.1 13.3-4 28.8-4.2 42.9l-.1 6.6-.3 16h2l.3-3c.6-4.4 2.3-8 4.4-12l1-2c2.7-5.1 5.5-9.7 9.3-14l1.8-2a56 56 0 0 1 24.2-15l-.1 6c0 2 0 2 1.1 4l-1.8.6c-14.7 5.2-21.8 15.2-28.4 28.8-5.6 12.6-8 20.6-3 33.7l1 2.2 7.5 20.4a536 536 0 0 1 20.2 66.8 529 529 0 0 1 8.7 40.2l.5 2.7q7.8 41.9 10.4 84.2l.2 3.8a1088 1088 0 0 1 1.8 64.1V676l-.1 36h-29q-3-11.2-5.8-22.5c-7.2-31-17.5-61.7-31.2-90.5l-1.4-2.9a451 451 0 0 0-56.2-88.4l-5.5-6.8a221 221 0 0 0-22.7-25.6l-5.5-6q-5.5-6.3-11.5-11.7l-2.1-2-6.1-5.6-2.9-2.7a336 336 0 0 0-20.7-17.4q-18-15-37.4-27.9l-2-1.3C212.8 370 158 344.2 101 355l-6.9 1.1-5.1.9c3.3-3.7 7-6 11.4-8.4l2.1-1.2q14.8-8 31-12.6l2.5-.8a138 138 0 0 1 38.4-4.3h7.4c10.4-.1 20 1 30.2 3.3l2.6.6 5.8 1.4 3.8 1a259 259 0 0 1 92.8 50c-1.8 5.6-1.8 5.6-2.9 8-3 7.6-3.6 16.7-1.3 24.6 1.7 3.7 3.6 6.4 7.2 8.4 7 2.3 13 1.1 19.6-1.8a58 58 0 0 0 9.4-6.2c4.1 1.6 6.7 4.6 9.6 7.8l1.6 1.7q7.5 8.6 14.4 17.7l4.3 5.5a480 480 0 0 1 32.8 50.1l3.4 5.8c6.4 10.7 11.6 22 16.9 33.4l1.4 2.9c16.2 35 27.7 71.7 36.6 109.1a608 608 0 0 0-67.7-204.6q-3.1-5.5-5.3-11.4a170 170 0 0 1 27.3 28.8c33.8 42.4 51.7 92 59.7 145.2a730 730 0 0 0-23.7-164.4A580 580 0 0 0 442 386l-1.3-3.6q-5.7-16-12.4-31.6l-1-2.6a18 18 0 0 0-11.2-11q-5-.5-10-.5l-2-.1A16 16 0 0 0 392 341c-2 2-2 2-3.8 4.3L385 349h-1l-.7-6.1c-.1-2-.1-2-1.3-2.9h-8c1.8-5.4 7-7 11.8-9.4 11.6-5.2 23.2-5 35.2-1.6l-5.2-5.8-1.5-1.7a39 39 0 0 0-12.6-9.7l-2-1-1.7-.8q3.4-2.6 7-4.8c3.7-2.7 5-5.1 7-9.2h2l.4 2.3a33 33 0 0 0 8.6 17.3q3.1 4 6 8.4l-.2-2.8q-1-13.5-.9-27v-14.5z"/>
    <path fill="#fe5c01" d="M310.9 112.1c9.3 2.6 16.3 13 21.1 20.9a66 66 0 0 1 9 37c-2.4 2.7-5 4.2-8 6-9 6-11.6 18-14 28a15 15 0 0 1-7.2-6l-1.5-2.1C309 194 309 194 308 192q.9 6.2 3 12c-4.8-.6-8-2.6-12-5l2 2.4c2 2.6 2 2.6 2 4.6l-1.9 1-2.5 1.4-2.4 1.3c-2.3 1.2-2.3 1.2-4.2 3.3h-3l-3 6c-4 7.7-5.5 15.4-3.2 24q1.8 5.5 4.8 10.7c1.4 2.3 1.4 2.8 1.4 5.3l1.7.8c2.5 1.3 4.4 2.9 6.6 4.7l2 1.8c1.7 1.7 1.7 1.7 1.7 3.7q-3.3 2.4-6.7 4.4a20 20 0 0 0-5.3 5.6l3.2-2c5.4-3.2 10.9-3.2 17-3.1h2.3q7.8 0 15.5 1.1l-2.3-.8c-15.7-5.5-28.4-13.5-35.8-29a36 36 0 0 1-1-22.5c5-6.4 11-12.3 19.1-13.7 6.1-.5 11.3-.6 17 2l-.2-2.6c-.8-13.5 4.4-22.5 13.2-32.7 4.9-2.8 9.5-2.5 15-1.7a44 44 0 0 1 28.1 23c2.1 4.4 2.8 8.3 1.3 13l-1.6 4q-1.1 3-1.8 6h2l.2-3.5c1-7.5 5.4-12.6 11-17.3 5.2-3.6 9.6-3.8 15.8-3.2 5.5 1.9 8.4 7 11 12q1.8 5 3 10l.6 1.8a51 51 0 0 1-3 29.8l-1.5 4-.7 2a45 45 0 0 1-4.6 8.7c-2.1 2.6-2.1 2.6-1.6 6 .7 2.6.7 2.6 1.8 4.7 1 8.9-.7 16.3-5.8 23.6a27 27 0 0 1-18.6 8.8c-5.3.2-10.5.3-15.6-1.4a26 26 0 0 0-10.7-.9l-2.2.2a53 53 0 0 0-21.6 7.7c-10.3 5.6-20.6 10.5-32.6 7.5a19 19 0 0 1-8.9-6.5l-1.4-3.4c-1.7-3.9-3.6-5.7-6.6-8.6a41 41 0 0 1-5-16l-1 9c-8.2 3.8-16 5.2-25 4-5.7-2.4-5.7-2.4-7-5-.4-7.4 2.5-12.4 7-18l1.5-2a48 48 0 0 1 17.5-11l-3.6-.1-9.9-.5-2.3-.2a34 34 0 0 1-13-4c-9.7-4.4-19-9-25.2-18.2-.7-3.7-.6-6 1.4-9.2A45 45 0 0 1 260 215l-3.5-1a33 33 0 0 1-17.5-17c-4-9-6.2-20.3-3-30 4.1-6.1 11-8.3 18-10q4.4-.4 8.8-.4l2.2-.1q10-.3 18 5.5c2.9 4 4.7 8.2 6.6 12.8l3 6.8 1.2 3c1 2.5 1 2.5 3.2 3.4l-1-1.6c-3.3-5.7-5.3-11-7-17.4l-.8-2.6c-3-9.7-4-19.3.6-28.6q1.8-2.7 4.2-4.8h2l.1-2.4a35 35 0 0 1 9.9-16.8c3-1.8 3-1.8 5.9-1.7"/>
  </g>
</svg>
