<svg xmlns="http://www.w3.org/2000/svg" display="block" viewBox="0 0 934 934">
  <g class="layer">
    <title>Layer 1</title>
    <path fill="#ebd0b7" d="M373 715h229q-.8 14.5-2.7 28.8l-.6 3.8c-7 49-19.3 107-55.7 143.4a9 9 0 0 0 1 5l5 4c1 2 1 2 1 4-1 1.5-1 1.5-3 3q-4.1.9-8.2 1.2l-2.7.2c-15.8 1.2-31.6.9-47.4.8h-26.4c-27.6 0-27.6 0-35.3-4.2.2-2.3.2-2.3 1-5l2.6-2c2.6-1.7 2.6-1.7 2.8-4.3-.5-3.6-2-4.9-4.5-7.4q-6.6-7-11.9-15.3l-2-3.2c-28.4-44.2-37.3-101.4-42-152.8"/>
    <path fill="#345d38" d="M830 189a20 20 0 0 1-7.1 3.3l-2.5.6-2.6.8A199 199 0 0 0 746 234l-1.6 1.3a251 251 0 0 0-21.3 19.7c-2.1 2-2.1 2-4.1 2l-.6 1.6c-2 3.4-4.7 5.8-7.5 8.5q-7.3 7.1-13.6 15-3.1 4-6.4 7.6a400 400 0 0 0-26 33.4q-9.3 12.6-17.9 25.9l-1.3 2a895 895 0 0 0-43.1 74.5A767 767 0 0 0 559 523l-1.2 3.3a613 613 0 0 0-16.4 50c-5.9 19.4-10.6 39-15.4 58.7a138 138 0 0 0 4-11.1A474 474 0 0 1 638 440l2-2c8-8.2 16-16 25-23l3-2.4a204 204 0 0 1 66-35.6l3.2-1.1 9.8-2.9 2-.6c28.3-7.3 61.1-5.8 88 5.6l3.4 1.3A117 117 0 0 1 880 406l2 2 4 4v2q-5.9-2.3-11.1-5.3c-32.4-16.8-75-11.5-108.4-1q-14 4.7-27.3 11.2l-6.2 3q-27 13-50.3 31.7l-4.5 3.6a255 255 0 0 0-26.6 23.2l-5.6 5.1q-8.7 7.5-16.1 16.4l-6.1 6.7q-7.5 8.5-14.3 17.4l-4.9 6.3A379 379 0 0 0 582 564l-1.6 2.4c-27.7 43.2-53.2 94.9-63.4 145.6h-13c3.5-48 9-96.2 18.5-143.4l1.7-8.8 1.3-6.5.6-2.9a882 882 0 0 1 10.6-46.2l2.1-8.4q3.9-15 8.5-29.7l2.9-9 3-9.8 1.6-4.9c8.2-26.2 8.2-26.2 13.2-37q1.7-4.1 3-8.3A413 413 0 0 1 647 265l1.6-1.9a213 213 0 0 1 39.8-36.8c40-31 91.5-47.2 141.6-37.3"/>
    <path fill="#365f39" d="m428 248 2.8 2c3 2.3 3 2.3 6.3 2 3-1 5.3-2.2 7.9-4a34 34 0 0 1-2.4 9.5c-5.1 13.3-4 28.8-4.2 42.9l-.1 6.6-.3 16h2l.3-3c.6-4.4 2.3-8 4.4-12l1-2c2.7-5.1 5.5-9.7 9.3-14l1.8-2a56 56 0 0 1 24.2-15l-.1 6c0 2 0 2 1.1 4l-1.8.6c-14.7 5.2-21.8 15.2-28.4 28.8-5.6 12.6-8 20.6-3 33.7l1 2.2 7.5 20.4a536 536 0 0 1 20.2 66.8 529 529 0 0 1 8.7 40.2l.5 2.7q7.8 41.9 10.4 84.2l.2 3.8a1088 1088 0 0 1 1.8 64.1V676l-.1 36h-29q-3-11.2-5.8-22.5c-7.2-31-17.5-61.7-31.2-90.5l-1.4-2.9a451 451 0 0 0-56.2-88.4l-5.5-6.8a221 221 0 0 0-22.7-25.6l-5.5-6q-5.5-6.3-11.5-11.7l-2.1-2-6.1-5.6-2.9-2.7a336 336 0 0 0-20.7-17.4q-18-15-37.4-27.9l-2-1.3C212.8 370 158 344.2 101 355l-6.9 1.1-5.1.9c3.3-3.7 7-6 11.4-8.4l2.1-1.2q14.8-8 31-12.6l2.5-.8a138 138 0 0 1 38.4-4.3h7.4c10.4-.1 20 1 30.2 3.3l2.6.6 5.8 1.4 3.8 1a259 259 0 0 1 92.8 50c-1.8 5.6-1.8 5.6-2.9 8-3 7.6-3.6 16.7-1.3 24.6 1.7 3.7 3.6 6.4 7.2 8.4 7 2.3 13 1.1 19.6-1.8a58 58 0 0 0 9.4-6.2c4.1 1.6 6.7 4.6 9.6 7.8l1.6 1.7q7.5 8.6 14.4 17.7l4.3 5.5a480 480 0 0 1 32.8 50.1l3.4 5.8c6.4 10.7 11.6 22 16.9 33.4l1.4 2.9c16.2 35 27.7 71.7 36.6 109.1a608 608 0 0 0-67.7-204.6q-3.1-5.5-5.3-11.4a170 170 0 0 1 27.3 28.8c33.8 42.4 51.7 92 59.7 145.2a730 730 0 0 0-23.7-164.4A580 580 0 0 0 442 386l-1.3-3.6q-5.7-16-12.4-31.6l-1-2.6a18 18 0 0 0-11.2-11q-5-.5-10-.5l-2-.1A16 16 0 0 0 392 341c-2 2-2 2-3.8 4.3L385 349h-1l-.7-6.1c-.1-2-.1-2-1.3-2.9h-8c1.8-5.4 7-7 11.8-9.4 11.6-5.2 23.2-5 35.2-1.6l-5.2-5.8-1.5-1.7a39 39 0 0 0-12.6-9.7l-2-1-1.7-.8q3.4-2.6 7-4.8c3.7-2.7 5-5.1 7-9.2h2l.4 2.3a33 33 0 0 0 8.6 17.3q3.1 4 6 8.4l-.2-2.8q-1-13.5-.9-27v-14.5z"/>
    <path fill="#fe5c01" d="M310.9 112.1c9.3 2.6 16.3 13 21.1 20.9a66 66 0 0 1 9 37c-2.4 2.7-5 4.2-8 6-9 6-11.6 18-14 28a15 15 0 0 1-7.2-6l-1.5-2.1C309 194 309 194 308 192q.9 6.2 3 12c-4.8-.6-8-2.6-12-5l2 2.4c2 2.6 2 2.6 2 4.6l-1.9 1-2.5 1.4-2.4 1.3c-2.3 1.2-2.3 1.2-4.2 3.3h-3l-3 6c-4 7.7-5.5 15.4-3.2 24q1.8 5.5 4.8 10.7c1.4 2.3 1.4 2.8 1.4 5.3l1.7.8c2.5 1.3 4.4 2.9 6.6 4.7l2 1.8c1.7 1.7 1.7 1.7 1.7 3.7q-3.3 2.4-6.7 4.4a20 20 0 0 0-5.3 5.6l3.2-2c5.4-3.2 10.9-3.2 17-3.1h2.3q7.8 0 15.5 1.1l-2.3-.8c-15.7-5.5-28.4-13.5-35.8-29a36 36 0 0 1-1-22.5c5-6.4 11-12.3 19.1-13.7 6.1-.5 11.3-.6 17 2l-.2-2.6c-.8-13.5 4.4-22.5 13.2-32.7 4.9-2.8 9.5-2.5 15-1.7a44 44 0 0 1 28.1 23c2.1 4.4 2.8 8.3 1.3 13l-1.6 4q-1.1 3-1.8 6h2l.2-3.5c1-7.5 5.4-12.6 11-17.3 5.2-3.6 9.6-3.8 15.8-3.2 5.5 1.9 8.4 7 11 12q1.8 5 3 10l.6 1.8a51 51 0 0 1-3 29.8l-1.5 4-.7 2a45 45 0 0 1-4.6 8.7c-2.1 2.6-2.1 2.6-1.6 6 .7 2.6.7 2.6 1.8 4.7 1 8.9-.7 16.3-5.8 23.6a27 27 0 0 1-18.6 8.8c-5.3.2-10.5.3-15.6-1.4a26 26 0 0 0-10.7-.9l-2.2.2a53 53 0 0 0-21.6 7.7c-10.3 5.6-20.6 10.5-32.6 7.5a19 19 0 0 1-8.9-6.5l-1.4-3.4c-1.7-3.9-3.6-5.7-6.6-8.6a41 41 0 0 1-5-16l-1 9c-8.2 3.8-16 5.2-25 4-5.7-2.4-5.7-2.4-7-5-.4-7.4 2.5-12.4 7-18l1.5-2a48 48 0 0 1 17.5-11l-3.6-.1-9.9-.5-2.3-.2a34 34 0 0 1-13-4c-9.7-4.4-19-9-25.2-18.2-.7-3.7-.6-6 1.4-9.2A45 45 0 0 1 260 215l-3.5-1a33 33 0 0 1-17.5-17c-4-9-6.2-20.3-3-30 4.1-6.1 11-8.3 18-10q4.4-.4 8.8-.4l2.2-.1q10-.3 18 5.5c2.9 4 4.7 8.2 6.6 12.8l3 6.8 1.2 3c1 2.5 1 2.5 3.2 3.4l-1-1.6c-3.3-5.7-5.3-11-7-17.4l-.8-2.6c-3-9.7-4-19.3.6-28.6q1.8-2.7 4.2-4.8h2l.1-2.4a35 35 0 0 1 9.9-16.8c3-1.8 3-1.8 5.9-1.7"/>
    <path fill="#335c37" d="M770 16c-3 3.2-6.6 5.3-10.3 7.5A229 229 0 0 0 700 78l-2.9 3.5A499 499 0 0 0 652 149l-1.2 2.1q-12 21.2-22.8 42.9l-1 1.8a736 736 0 0 0-23.1 50.7 292 292 0 0 0-9 24l-3.2 8q-5.2 12.7-9.7 25.5l-.7 2a631 631 0 0 0-15.1 46.4l-5.3 17.5a1192 1192 0 0 0-36.3 157.6l-2 11.5q-5.5 29.8-9.3 59.9l-.8 6.3-.3 2-.3 2-4.9 35q-1.9 12.3-3 24.8h-1l-.4-22.8-.2-10.6-.3-24.7-.2-7.5a562 562 0 0 1 2.2-55l.7-8.3q2-26.1 5.2-52.1l.4-3 3.4-28q3-27 7.8-54l.6-3.6a1591 1591 0 0 1 8-44.6c3-17.2 7.3-34 11.8-50.8l2.2-.2 3-.2 3-.2c5.6-.8 10-2.9 14.4-6.7 2.4-4.6 1.7-9 .8-14-.4-2.7-.4-2.7.6-4.7a33 33 0 0 0 0-11c-1.5-1.6-1.5-1.6-3.5-2.8-2.5-1.9-3.4-2.8-4.2-5.9-.6-11.9 4-23.2 7.7-34.3l1.3-3.9q1.7-5.8 4.2-11.5l3.3-9C579 187 584.5 175 590 163l1.4-3a341 341 0 0 1 34.6-60l1.3-1.7q8-10.8 17.2-20.6l6-6.9A170 170 0 0 1 696 36l2-1c21.8-11.9 47-19.5 72-19"/>
    <path fill="#375f3a" d="m212 446 2.7.5A265 265 0 0 1 326 499l2.7 2 10.2 8.4A294 294 0 0 1 365 534a266 266 0 0 1 17.4 18.8A460 460 0 0 1 407 585l1.4 2a353 353 0 0 1 20.6 34l1.3 2.3C464 683.7 464 683.7 464 712h-11l-1.2-4.3q-2.8-8.9-6.9-17l-1.4-3.2-4.5-9.5-1.3-2.8A320 320 0 0 0 418 640l-1.3-2a357 357 0 0 0-40.8-52.4A265 265 0 0 0 349 559l-3-2.6A360 360 0 0 0 218 483l-2.9-1a202 202 0 0 0-59.8-10.2h-2.7c-34.6-.2-64 3-95.6 18.2 9-19.4 33.3-31.5 52.3-38.9 31.5-11.6 70-11.5 102.7-5.1"/>
    <path fill="#fe5c01" d="M432 106a38 38 0 0 1 19 13l2 6 2.1-1.9c8-6.8 13.8-10.8 24.5-10.4 4.6.6 8 1.6 11 5.2 7.5 10.4 7.8 19.8 7.4 32.1l2.3-2.4c3.2-3.1 5.2-4.9 9.8-5l3.9.4c3.3 5 2.6 10.2 2 16a59 59 0 0 1-24.8 36.8q-7.7 4.4-16.2 7.2l-3-1 2-4-2.2 1.7a303 303 0 0 1-19.5 13.7c-2.4 1.4-2.4 1.4-3.3 3.6 5.2.8 8.2-1.8 12.1-4.7A59 59 0 0 1 501 201a36 36 0 0 1 18.4 9.3c1.8 3.1 2 5.2 1.3 8.7-2.2 6.4-8 10.1-13.7 13-6.3 2.4-12 2.3-18.7 2.3H485a66 66 0 0 1-28-6.3 37 37 0 0 0-15.2-3c-4.8.2-7-1-10.8-4l-5-1-.7-2.5c-2.5-9-5.9-17.3-13.3-23.5-3.3-1.1-6-1.1-9.4-1.1H399a22 22 0 0 0-7.1 1.1 54 54 0 0 1-9.4-35.2c0-3.1.2-5.4 1.7-8.3 2.3-2 4.3-2.2 7.3-2A46 46 0 0 1 409 158l-1.4-1.6c-4.8-7.1-4.6-16-3.1-24.2a49 49 0 0 1 15.3-24.6c4.3-2.2 7.4-2.6 12.2-1.6"/>
    <path fill="#36603a" d="M794.6 558.7c11.5 10.6 23.8 27 24.5 43.2l-.1 2.1-2.2-2.2A122 122 0 0 0 757 571l-2.7-.7c-11.7-2.5-23.8-2.5-35.7-2.5l-7-.1a141 141 0 0 0-33.3 3.8q-15 3.2-29.3 8.5l-3 1a184 184 0 0 0-78 62l-2.1 2.8q-20.2 27.3-32 59L531 712h-11c11-44.2 34.5-85.2 66-118l1.5-1.6q11.8-12.3 25.5-22.4l1.7-1.3Q629 558.1 645 550l2-1.1c45.4-23.9 107.6-25.3 147.6 9.8"/>
    <path fill="#37603a" d="M259.4 577.7h2.2a187 187 0 0 1 38.6 3.7c45.2 8.1 87.2 42.1 114.8 77.6l2.4 3a236 236 0 0 1 23.7 37.3l1.5 2.8 1.3 2.6 1.2 2.3c1 2 1 2 1 5-3.3.6-5 .8-8 0-3-3-5-6.5-7-10a199 199 0 0 0-48-51l-1.8-1.2a202 202 0 0 0-55.3-28.1l-6-2.2a109 109 0 0 0-16.3-4.6L295 613l-2-.4a167 167 0 0 0-33.9-3h-7.8c-15.1 0-29.8 1.6-44.1 6.6l-2.7 1A90 90 0 0 0 155 657l-1.2 2.1c-2.7 5-4.3 10.4-5.8 15.9h-1a86 86 0 0 1 22-60l2.3-3q4.2-4.7 9.1-8.4l1.9-1.4q9.3-7 19.7-12.2l2.7-1.4c8.6-4.3 18-6.5 27.3-8.6l2.5-.6c8.2-1.7 16.5-1.8 24.9-1.7"/>
    <path fill="#36603a" d="m728 583.8 2.3.4a72 72 0 0 1 19 7.3 65 65 0 0 1 32.2 34.4c.5 2.1.5 2.1-.5 5.1l-1.4-1.5c-19.6-18.7-44.7-20.2-70.6-19.7-40.7 1-81.3 23.5-110 51.2l-2.4 2.2a144 144 0 0 0-23.8 31c-3.5 5.9-6 11.5-8.8 17.8h-27c2.3-10.1 2.3-10.1 4-13.8l1.1-2.5 1.3-2.6 1.3-2.7c13.3-26.9 32.6-51 56.3-69.4l1.7-1.3c9.8-7.7 20.2-14 31.3-19.7l2.1-1.1c27.7-14.3 61-21.3 91.8-15.1"/>
    <path fill="#fe5d04" d="M370 77.6A42 42 0 0 1 388 98v3h2v-2c1.7-1.7 1.7-1.7 4-3 2.5.1 2.5.1 5 1 1.5 2.1 1.5 2.1 2.7 4.8l1.3 2.7c2.1 5.3 3.4 11.1 1.1 16.6l-1 2.3c-3.2 7.2-3 15-3.1 22.6l-1.7-.5q-3.6-.7-7.3-.7h-2.6c-2.7.2-4.2.6-6.4 2.2-3.4 4.1-3.4 8-3.3 13.1v2.3q.4 12.6 4.3 24.6c-3.2-2.1-3.6-2.8-5-6.1q-1.8-4.5-4.1-8.9c-4.6-9.2-4.4-19-3.9-29l1-2 .7-7c.8-7.2 3.1-12 7.3-18v-1c-6 2.8-7.8 6.8-10.1 12.8-1 3.8-1.2 7.1-.9 11 0 2.2 0 2.2-1 4-3.9 8.1-.7 19.2 2 27.2l2 7c-12.5-5.5-21.7-23.9-27-36a81 81 0 0 1-6.2-28.6v-4c.2-3.4.2-3.4 2.2-6.4 3.3-.7 5.2-.5 8.1 1.2 3.3 2.4 5.6 4.4 7.9 7.8v-3.7c.2-11.1.8-20.7 8.8-29.2 2.2-1.1 2.2-1.1 5.2-.5"/>
    <path fill="#fe5a03" d="M382 342c.9 11.4-4.5 21.8-9 32l-1 2.3c-7.8 18.2-16.3 36.6-35 45.7l-3 1.4a31 31 0 0 1-14-.4c-1.3-2-1.3-2-2-4 2.3-.7 2.3-.7 5-1l1.8 1.6 2.2 1.4a25 25 0 0 0 15-10l1-3-2.1 2.3c-6.8 6.5-6.8 6.5-12.1 7-2.8-.3-2.8-.3-4.8-2.3a48 48 0 0 1 5-23q-6 11.8-11 24h-2c-1.2-19.3 6.5-33.6 19-48 6.2-7 13.5-12.6 21-18l1.7-1.2A30 30 0 0 1 382 342"/>
    <path fill="#fe5e04" d="m552.7 251 2.3 2c-.3 3.3-.7 4.7-3.2 7q-4.3 3-9 5l-3.3 1.5c-8.6 3.6-17 5.5-26.3 7l-7.2 1.3-3.2.6c-2.6.6-4.5 1.3-6.8 2.6 29.5-2.7 29.5-2.7 56-15 3.9 0 5.7.8 8.9 3.1 2.7 3.7 2.7 5.5 2.1 9.9l-1.6 2.6-1.4 2.4c.7 2.5.7 2.5 2 5 1 3.6 1 3.6 1 7-2 2.3-2 2.3-5 4l-2.9 1.8c-15.6 6-35.6-2.7-50.6-7.6l-13.3-4.2a17 17 0 0 1-9.2-6c0-3.2.6-4.6 2.8-7 3.8-3.4 8.3-5.7 12.8-8.2l3-1.8q9.7-5.3 19.8-9.7l2.2-1c8.6-3.4 21.7-8 30-2.3"/>
    <path fill="#fec206" d="M368 232c2.6.4 2.6.4 5 1l.4 3 .3 1.9.4 4.1a71 71 0 0 0 11.4 30.2c2.3 4.2 2.3 4.2 2.5 6.8a13 13 0 0 1-8.3 6c-4.7 0-6.7-1.6-10-4.6l-3.7-3-2-1.7q-5.5-4.5-11.4-8.9l-2.3-1.7c-4.6-3.5-7.3-4.6-13.3-4.1-2-2-2-2-2.2-5.6.2-3.4.2-3.4 1.2-4.4 2.3-.5 2.3-.5 5 0l2.1 3.2c3.1 4.5 7 6.7 11.7 9.4q9 5 17.2 11.4-2-4.4-5-8l-1.9-2.4-1.8-2.4-7.3-9.2-1.8-2.3-1.6-2.1-1.5-2C350 245 350 245 350 243l-2.4.2-2.6-.2c-2.1-3.2-2.4-4.3-2-8 2-2 2-2 4.5-2.2 2.5.2 2.5.2 4.5 2.2l.4 3.3a15 15 0 0 0 4.5 9l2.5 2.8 10.2 11.2q5.4 6.1 10.4 12.7l-1.4-3.2c-3.5-8.2-6.5-16.2-8.6-25-1.1-3.1-2.6-4.5-5-6.8.2-3.4.6-4.6 3-7"/>
    <path fill="#fdc102" d="M451.6 155.2c2.4.8 2.4.8 4.4 2.8.4 2.4.4 2.4 0 5l-2 1.2c-3 2.6-2.9 5-3.4 8.8l-.4 2-.9 6.6-1 6.5-.8 5.9c-.5 3-.5 3-1.5 5v6l1.8-3.4 2.3-4.5 1.3-2.4q3.1-6.1 7.1-11.8c2.5-3.6 3-6.5 3.5-10.9 1.3-2 1.3-2 3-3 4.4.4 4.4.4 6 2 .3 2.8.5 4.4-1.2 6.7-1.8 1.3-1.8 1.3-3.7 2-8.6 5.3-13.7 23-17.2 32.1-.9 2.2-.9 2.2-1.9 3.2-5.4.4-8.6.5-13-3-.5-3.2-.5-3.2-.4-7.2v-2l.2-6.9c1-13.7 1-13.7-1.8-26.9-2-1.3-2-1.3-4-2-.2-2.8-.3-4.5 1.2-6.9 1.8-1.1 1.8-1.1 4.4-.9 2.4.8 2.4.8 3.4 1.8.1 3 .1 5.5-.6 8.4-.4 2.9-.2 4.9.4 7.8q1.4 8.3 2.3 16.5l.3 2.5.6 5.8.4-1.8 2-8.3.6-2.8 3.2-12c.7-2.9 1-5.2 1-8.2v-2.5c-.2-2.6-.2-2.6-.9-5.8-.3-2.6-.3-2.6.8-4.5 1.9-1.1 1.9-1.1 4.5-1"/>
    <path fill="#fe5d05" d="M427 225a22 22 0 0 1 10 5v3h2l1-3c4.6-1 7.8-.8 12.4.4l3.2 1 2.4.6c-4.6 4.9-4.6 4.9-8 6l-2 4c-1.6 1.6-1.6 1.6-3.4 3.1l-1.9 1.5c-4.3 3.4-4.3 3.4-6.6 3.3a13 13 0 0 1-7-6.8c-2.3-6-2.4-11.7-2.1-18.1"/>
    <path fill="#fdc81e" d="M433.6 159.3c2.4.7 2.4.7 3.4 1.7.1 3 .1 5.5-.6 8.4-.4 2.9-.1 4.7.5 7.6 1.8 9.2 1.3 18.7 1.1 28h-2l-1 7h-1v-2.9l.1-10.6v-4.7c.7-12.7.7-12.7-2.1-24.8-2-1.3-2-1.3-4-2-.2-2.8-.3-4.5 1.2-6.9 1.8-1.1 1.8-1.1 4.4-.8"/>
    <path fill="#fec239" d="M281.6 184.2c2.4.8 2.4.8 4.4 2.8l.5 2.7c2.3 5.1 6.8 7.4 11.5 10.3v-2l3 1h-2l2 2.4c2 2.6 2 2.6 2 4.6-2.3.8-3.6 1.1-6 .4q-3.7-2.7-7-6.4c-3.8-3.5-7-4.7-12-6-2-2-2-2-2.3-4.4.3-2.6.3-2.6 1.5-4.5 1.8-1.1 1.8-1.1 4.4-1"/>
    <path fill="#fbf0ee" d="M339 279a382 382 0 0 1 35 9l-2.8 3.5-1.6 2C368 295 368 295 365 295l-4.7-3.1A100 100 0 0 0 339 282z"/>
    <path fill="#fcddd2" d="m331 387 1 2-2.3 4.6A39 39 0 0 0 325 415c1 1.3 1 1.3 3.7 1.3 4-.4 6-1.9 9.3-4.3l3-1 2-4 2-1a27 27 0 0 1-10 13q-4.4 2-9 3v-2l-6-.5c-2-.5-2-.5-4-3.5h2l1.1-3.6c3-9 6.5-17.7 11.9-25.4"/>
    <path fill="#fcebe6" d="m474 198-1 4 7-1v3l-2.1.8c-7 2.7-13 6-19 10.3-2.9 2-4.4 3-7.8 2.7l-2.1-.8c1.4-4.2 4.5-5.5 8.1-7.8a96 96 0 0 0 12.2-8.8c2.7-2.4 2.7-2.4 4.7-2.4"/>
    <path fill="#fec813" d="M347.5 232.8c2.5.2 2.5.2 4.5 2.2l.2 3c.5 4.7 3.3 7.6 6.3 11 1.5 2 1.5 2 1.5 5-2.7-.4-3.8-.8-5.7-2.8l-1.5-2.1-1.6-2.2C350 245 350 245 350 243l-2.4.2-2.6-.2c-2.1-3.2-2.4-4.3-2-8 2-2 2-2 4.5-2.2"/>
    <path fill="#fec812" d="m276.6 204.9 2.4.1 2 5 6 .6c2 .4 2 .4 5 2.4h-3l-1 2-3.7-.6c-2.7-.3-4.4-.4-7.1.2-2.2.4-2.2.4-4-.7-1.6-2.5-1.6-4-1.2-6.9 2-2 2-2 4.6-2.1"/>
    <path fill="#fece14" d="M301.4 174.8c2.6.2 2.6.2 4.6 2.2.4 2.2.4 2.2.6 4.9q0 3.7 1 7.3l.4 1.8-2 2-.7-1.7-1-2.2-1-2.2a9 9 0 0 0-5.3-3.9v-7c1-1 1-1 3.4-1.2"/>
    <path fill="#fec601" d="M281.6 184.2c2.4.8 2.4.8 4.4 2.8l-1 4v4c-5.4.4-5.4.4-7.9-1.2-1.5-2.5-1.5-4-1.1-6.8 1.7-2.7 2.4-3 5.6-2.8"/>
    <path fill="#fec002" d="M433.6 159.3c2.4.7 2.4.7 3.4 1.7.3 2.8.3 2.8 0 6-2 2.4-2 2.4-4 4l-1-2-4-2c-.2-2.8-.3-4.5 1.2-6.9 1.8-1.1 1.8-1.1 4.4-.8"/>
    <path fill="#fce3d7" d="M421 177c3.6 3.3 5.2 7.2 7.2 11.6l1.1 2.4c2.5 5.6 3 9.9 2.7 16l-2-1-2.4-8a92 92 0 0 0-5-14.4C421 180 421 180 421 177"/>
  </g>
</svg>
